<svg height="512" viewBox="0 0 256 256" width="512" xmlns="http://www.w3.org/2000/svg"><path d="m44.271 93.027 27.711 58.661h112.036l27.711-58.661z" fill="#fcc24c"/><path d="m184.019 153.688h-112.037a2 2 0 0 1 -1.809-1.145l-27.71-58.662a2 2 0 0 1 1.808-2.855h167.458a2 2 0 0 1 1.808 2.855l-27.71 58.662a2 2 0 0 1 -1.808 1.145zm-110.77-4h109.5l25.821-54.662h-161.142z" fill="#690589"/><path d="m104.772 161.683v-43.783h46.667v43.788h42.135a29.686 29.686 0 0 1 29.516 29.746v60.552h-190.18v-60.8a29.62 29.62 0 0 1 29.669-29.516z" fill="#526faa"/><path d="m104.772 151.081 23.116 28.753 23.551-28.753v-33.186h-46.667z" fill="#ff9f70"/><path d="m193.574 161.683h-10.367a29.675 29.675 0 0 1 29.516 29.733v60.565h10.367v-60.552a29.686 29.686 0 0 0 -29.516-29.746z" fill="#395288"/><path d="m62.579 161.67 10.367.013a29.62 29.62 0 0 0 -29.669 29.517v60.782h-10.367v-60.796a29.62 29.62 0 0 1 29.669-29.516z" fill="#708dc8"/><path d="m223.09 253.98h-190.18a2 2 0 0 1 -2-2v-60.794a31.63 31.63 0 0 1 31.631-31.516h.041l40.189.013v-41.783a2 2 0 0 1 2-2h46.667a2 2 0 0 1 2 2v41.788h40.136a31.248 31.248 0 0 1 22.308 9.352 31.58 31.58 0 0 1 9.208 22.4v60.54a2 2 0 0 1 -2 2zm-188.18-4h186.18v-58.551a27.607 27.607 0 0 0 -8.051-19.578 27.27 27.27 0 0 0 -19.468-8.167h-42.133a2 2 0 0 1 -2-2v-41.784h-42.667v41.788a2 2 0 0 1 -2 2l-42.192-.014h-.036a27.623 27.623 0 0 0 -27.633 27.514z" fill="#690589"/><path d="m43.277 217.988a2 2 0 0 1 -2-2v-12a2 2 0 0 1 4 0v12a2 2 0 0 1 -2 2z" fill="#690589"/><path d="m81.808 77.5h-3.3a15.453 15.453 0 0 0 0 30.906h3.3z" fill="#ffbd8e"/><path d="m177.591 77.5h-3.3v30.9h3.3a15.453 15.453 0 0 0 0-30.906z" fill="#e18152"/><path d="m128.049 156.051c-25.538 0-46.241-20.972-46.241-46.841v-32.429c0-25.87 20.7-46.842 46.241-46.842 25.538 0 46.241 20.972 46.241 46.842v32.429c0 25.869-20.703 46.841-46.241 46.841z" fill="#ff9f70"/><path d="m128.049 29.939a46.056 46.056 0 0 0 -5.255.31 46.627 46.627 0 0 1 40.986 46.532v32.429a46.627 46.627 0 0 1 -40.986 46.531 46.056 46.056 0 0 0 5.255.31c25.538 0 46.241-20.972 46.241-46.841v-32.429c0-25.87-20.703-46.842-46.241-46.842z" fill="#e18152"/><path d="m128.049 29.939a46.038 46.038 0 0 1 5.254.31 46.628 46.628 0 0 0 -40.986 46.532v32.429a46.628 46.628 0 0 0 40.983 46.531 46.038 46.038 0 0 1 -5.254.31c-25.538 0-46.241-20.972-46.241-46.841v-32.429c.003-25.87 20.706-46.842 46.244-46.842z" fill="#ffbd8e"/><g fill="#690589"><path d="m128.049 158.051c-26.6 0-48.241-21.91-48.241-48.841v-32.429c0-26.931 21.641-48.842 48.241-48.842s48.241 21.911 48.241 48.842v32.429c0 26.931-21.641 48.841-48.241 48.841zm0-126.112c-24.4 0-44.241 20.117-44.241 44.842v32.429c0 24.726 19.846 44.841 44.241 44.841s44.241-20.115 44.241-44.841v-32.429c0-24.725-19.847-44.842-44.241-44.842z"/><path d="m81.808 110.4h-3.3a17.453 17.453 0 0 1 0-34.906h3.3a2 2 0 0 1 2 2v30.906a2 2 0 0 1 -2 2zm-3.302-30.9a13.453 13.453 0 0 0 0 26.906h1.3v-26.906z"/><path d="m177.591 110.4h-3.3a2 2 0 0 1 -2-2v-30.9a2 2 0 0 1 2-2h3.3a17.453 17.453 0 0 1 0 34.906zm-1.3-4h1.3a13.453 13.453 0 0 0 0-26.906h-1.3z"/></g><path d="m128 93.027h-83.729l41.865-53.015 20.116-25.475a27.711 27.711 0 0 1 43.5 0l20.117 25.475 41.865 53.015z" fill="#526faa"/><path d="m169.864 40.012-20.117-25.475a27.639 27.639 0 0 0 -26.365-10.151 27.5 27.5 0 0 1 17.129 10.151l20.116 25.475 41.865 53.015h9.237z" fill="#395288"/><path d="m86.136 40.012 20.116-25.475a27.641 27.641 0 0 1 26.366-10.151 27.5 27.5 0 0 0 -17.129 10.151l-20.117 25.475-41.864 53.015h-9.237z" fill="#708dc8"/><path d="m211.729 95.026h-167.458a2 2 0 0 1 -1.571-3.239l61.983-78.487a29.709 29.709 0 0 1 46.633 0l61.984 78.487a2 2 0 0 1 -1.569 3.239zm-163.33-4h159.201l-59.423-75.25a25.712 25.712 0 0 0 -40.356 0z" fill="#690589"/><path d="m60.219 146.146h135.562a9.237 9.237 0 0 1 9.237 9.237v96.617a0 0 0 0 1 0 0h-154.036a0 0 0 0 1 0 0v-96.617a9.237 9.237 0 0 1 9.237-9.237z" fill="#f4efed"/><path d="m195.781 146.146h-8.313a9.237 9.237 0 0 1 9.237 9.237v96.617h8.313v-96.617a9.237 9.237 0 0 0 -9.237-9.237z" fill="#d6d1cf"/><path d="m60.219 146.146h8.313a9.237 9.237 0 0 0 -9.237 9.237v96.617h-8.313v-96.617a9.237 9.237 0 0 1 9.237-9.237z" fill="#fff"/><path d="m205.018 254h-154.036a2 2 0 0 1 -2-2v-96.617a11.25 11.25 0 0 1 11.237-11.237h135.562a11.25 11.25 0 0 1 11.237 11.237v96.617a2 2 0 0 1 -2 2zm-152.036-4h150.036v-94.617a7.246 7.246 0 0 0 -7.237-7.237h-135.562a7.246 7.246 0 0 0 -7.237 7.237z" fill="#690589"/><path d="m112.933 184.21h30.135v30.135h-30.135z" fill="#526faa" transform="matrix(.707 .707 -.707 .707 178.401 -32.143)"/><path d="m128 222.586a1.99 1.99 0 0 1 -1.414-.586l-21.309-21.309a2 2 0 0 1 0-2.828l21.309-21.308a2 2 0 0 1 2.828 0l21.309 21.308a2 2 0 0 1 0 2.828l-21.309 21.309a1.992 1.992 0 0 1 -1.414.586zm-18.48-23.309 18.48 18.481 18.48-18.481-18.48-18.477z" fill="#690589"/></svg>