<?xml version="1.0" encoding="utf-8"?>
<!-- Generator: Adobe Illustrator 23.0.1, SVG Export Plug-In . SVG Version: 6.00 Build 0)  -->
<svg version="1.1" id="Layer_1" xmlns="http://www.w3.org/2000/svg" xmlns:xlink="http://www.w3.org/1999/xlink" x="0px" y="0px"
	 viewBox="0 0 459.5 439.3" style="enable-background:new 0 0 459.5 439.3;" xml:space="preserve">
<style type="text/css">
	.st0{fill:url(#SVGID_1_);}
	.st1{fill:#FFFFFF;}
</style>
<g>
	
		<linearGradient id="SVGID_1_" gradientUnits="userSpaceOnUse" x1="281.4383" y1="343.0282" x2="128.5617" y2="190.1518" gradientTransform="matrix(1 0 0 -1 0 439.89)">
		<stop  offset="1.104800e-03" style="stop-color:#FFE187"/>
		<stop  offset="0.2094" style="stop-color:#FDB944"/>
		<stop  offset="0.3765" style="stop-color:#F05577"/>
		<stop  offset="0.5238" style="stop-color:#ED3995"/>
		<stop  offset="0.7394" style="stop-color:#8E509F"/>
		<stop  offset="1" style="stop-color:#5E5DA9"/>
	</linearGradient>
	<circle class="st0" cx="205" cy="173.3" r="108.1"/>
	<g>
		<g>
			<path class="st1" d="M238.6,132.4c-4.1,0-7.4,3.3-7.4,7.4c0,4.1,3.3,7.4,7.4,7.4c4.1,0,7.4-3.3,7.4-7.4S242.7,132.4,238.6,132.4z
				"/>
			<path class="st1" d="M205.6,141.9c-17.2,0-31.2,14-31.2,31.2s14,31.2,31.2,31.2s31.2-14,31.2-31.2S222.8,141.9,205.6,141.9z
				 M205.6,193.1c-11,0-20-9-20-20s9-20,20-20s20,9,20,20C225.6,184.2,216.6,193.1,205.6,193.1z"/>
			<path class="st1" d="M230.3,236.5h-50.6c-21,0-38.1-17.1-38.1-38.1v-50.6c0-21,17.1-38.1,38.1-38.1h50.6
				c21,0,38.1,17.1,38.1,38.1v50.6C268.4,219.4,251.3,236.5,230.3,236.5z M179.7,121.7c-14.4,0-26.1,11.7-26.1,26.1v50.6
				c0,14.4,11.7,26.1,26.1,26.1h50.6c14.4,0,26.1-11.7,26.1-26.1v-50.6c0-14.4-11.7-26.1-26.1-26.1
				C230.3,121.7,179.7,121.7,179.7,121.7z"/>
		</g>
	</g>
</g>
</svg>
