<?xml version="1.0" encoding="utf-8"?>
<!-- Generator: Adobe Illustrator 23.0.1, SVG Export Plug-In . SVG Version: 6.00 Build 0)  -->
<svg version="1.1" id="Layer_1" xmlns="http://www.w3.org/2000/svg" xmlns:xlink="http://www.w3.org/1999/xlink" x="0px" y="0px"
	 viewBox="0 0 459.5 439.3" style="enable-background:new 0 0 459.5 439.3;" xml:space="preserve">
<style type="text/css">
	.st0{fill:url(#SVGID_1_);}
	.st1{fill:#FFFFFF;}
</style>
<g>
	
		<linearGradient id="SVGID_1_" gradientUnits="userSpaceOnUse" x1="258.8237" y1="339.2137" x2="122.7763" y2="203.1663" gradientTransform="matrix(1 0 0 -1 0 439.89)">
		<stop  offset="0" style="stop-color:#00B8E9"/>
		<stop  offset="1" style="stop-color:#3279BE"/>
	</linearGradient>
	<circle class="st0" cx="190.8" cy="168.7" r="96.2"/>
	<path class="st1" d="M243.9,135.8c-3.3,1.5-7,2.4-10.6,3c1.7-0.3,4.2-3.4,5.2-4.6c1.5-1.9,2.8-4.1,3.5-6.4c0.1-0.2,0.2-0.4,0-0.6
		c-0.2-0.1-0.4,0-0.6,0c-4,2.1-8.2,3.7-12.6,4.8c-0.4,0.1-0.6,0-0.9-0.2c-0.4-0.4-0.7-0.8-1.1-1.1c-1.9-1.6-3.8-2.8-6.1-3.7
		c-2.9-1.2-6.2-1.7-9.3-1.5s-6.1,1.1-8.9,2.5c-2.7,1.4-5.2,3.4-7.2,5.8c-2,2.5-3.5,5.4-4.3,8.6c-0.7,3-0.7,6-0.2,9
		c0.1,0.5,0,0.6-0.4,0.5c-17.3-2.6-31.6-8.8-43.2-22c-0.5-0.6-0.8-0.6-1.2,0c-5.1,7.6-2.6,19.9,3.7,25.9c0.8,0.8,1.7,1.6,2.7,2.3
		c-0.3,0.1-4.6-0.4-8.3-2.3c-0.5-0.3-0.8-0.1-0.8,0.4c0,0.8,0,1.6,0.1,2.5c1,7.7,6.3,14.9,13.7,17.7c0.9,0.4,1.8,0.7,2.8,0.8
		c-1.7,0.4-3.4,0.6-8.2,0.3c-0.6-0.1-0.8,0.2-0.6,0.8c3.6,9.8,11.4,12.7,17.2,14.4c0.8,0.1,1.6,0.1,2.3,0.3c0,0.1-0.1,0.1-0.1,0.1
		c-1.9,2.9-8.6,5.1-11.7,6.2c-5.7,2-11.8,2.9-17.8,2.3c-1-0.1-1.2-0.1-1.4,0c-0.3,0.2,0,0.4,0.3,0.6c1.2,0.8,2.5,1.5,3.7,2.2
		c3.8,2,7.8,3.6,11.9,4.8c21.4,5.9,45.5,1.6,61.6-14.4c12.6-12.5,17.1-29.8,17.1-47.2c0-0.7,0.8-1.1,1.3-1.4
		c3.3-2.5,5.9-5.4,8.4-8.7c0.6-0.7,0.6-1.4,0.6-1.7v-0.1C244.3,135.5,244.3,135.6,243.9,135.8z"/>
</g>
</svg>
