<?xml version="1.0" encoding="utf-8"?>
<!-- Generator: Adobe Illustrator 23.0.1, SVG Export Plug-In . SVG Version: 6.00 Build 0)  -->
<svg version="1.1" id="Layer_1" xmlns="http://www.w3.org/2000/svg" xmlns:xlink="http://www.w3.org/1999/xlink" x="0px" y="0px"
	 viewBox="0 0 459.5 439.3" style="enable-background:new 0 0 459.5 439.3;" xml:space="preserve">
<style type="text/css">
	.st0{fill:url(#SVGID_1_);}
	.st1{fill:#FFFFFF;}
</style>
<g>
	
		<linearGradient id="SVGID_1_" gradientUnits="userSpaceOnUse" x1="278.5767" y1="342.9667" x2="122.0233" y2="186.4133" gradientTransform="matrix(1 0 0 -1 0 439.89)">
		<stop  offset="0" style="stop-color:#F06798"/>
		<stop  offset="1" style="stop-color:#DD2490"/>
	</linearGradient>
	<circle class="st0" cx="200.3" cy="175.2" r="110.7"/>
	<path class="st1" d="M200.3,113c-34.3,0-62.3,27.9-62.3,62.2s27.9,62.2,62.3,62.2c34.3,0,62.3-27.9,62.3-62.2S234.6,113,200.3,113
		L200.3,113z M241.3,142.4c7.1,8.8,11.4,19.9,11.6,32c-2.4-0.5-12.4-2.4-24.3-2.4c-3.9,0-7.9,0.2-12,0.7c-0.3-0.8-0.7-1.7-1-2.5
		c-1.1-2.5-2.2-4.9-3.4-7.4C230.5,155.3,239.4,144.7,241.3,142.4L241.3,142.4z M200.3,122.7c13.3,0,25.4,4.9,34.7,13
		c-1.5,2-9.4,11.9-27.2,18.6c-8.2-15-17.2-27.5-19.3-30.3C192.2,123.2,196.2,122.7,200.3,122.7L200.3,122.7z M177.7,127.8
		c1.8,2.5,10.8,15.1,19.2,30c-22.6,5.9-42.7,6.3-47.5,6.3h-0.5C152.4,148.1,163.2,134.7,177.7,127.8L177.7,127.8z M147.7,175.3
		c0-0.4,0-0.9,0-1.3c0.3,0,0.8,0,1.4,0c6.5,0,29.2-0.5,52.5-7.5c1.4,2.8,2.8,5.6,4,8.4c-0.6,0.2-1.2,0.3-1.7,0.5
		c-26.3,8.5-40.7,31-43,34.6C152.7,200.8,147.7,188.6,147.7,175.3L147.7,175.3z M200.3,227.8c-12.1,0-23.2-4.1-32.1-10.9
		c1.5-2.9,12.4-22.6,41.2-32.6c0,0,0,0,0.1,0c7.2,18.8,10.3,34.6,11.1,39.5C214.4,226.4,207.5,227.8,200.3,227.8L200.3,227.8z
		 M230.1,218.5c-0.7-4-3.5-18.8-10.1-36.9c3.7-0.6,7.2-0.8,10.6-0.8c11,0,19.6,2.4,21.6,3C249.8,198.2,241.6,210.6,230.1,218.5
		L230.1,218.5z"/>
</g>
</svg>
